<svg width="46" height="42" viewBox="0 0 46 42" fill="none" xmlns="http://www.w3.org/2000/svg">
<path d="M0.15625 38.9568V2.65877C0.15654 2.58002 0.184562 2.50309 0.236802 2.43764C0.289042 2.37218 0.363174 2.32111 0.449903 2.29083C0.536632 2.26055 0.632097 2.2524 0.724327 2.26741C0.816556 2.28242 0.901445 2.31993 0.968348 2.37522L23.5165 20.8069L0.968348 39.2404C0.901445 39.2956 0.816556 39.3331 0.724327 39.3482C0.632097 39.3632 0.536632 39.355 0.449903 39.3247C0.363174 39.2945 0.289042 39.2434 0.236802 39.1779C0.184562 39.1125 0.15654 39.0356 0.15625 38.9568ZM32.9708 28.3805L4.69827 41.4367L4.68064 41.445C4.1936 41.6667 3.7308 41.1144 4.12969 40.7929L26.2922 23.03L32.9708 28.3805ZM4.1319 0.820778C3.73081 0.499359 4.1936 -0.0529633 4.68284 0.168705L4.70047 0.177021L32.9708 13.2332L26.2922 18.5856L4.1319 0.820778ZM44.3842 23.1159L36.4891 26.7605L29.0656 20.8069L36.4891 14.856L44.3842 18.4978C46.5318 19.4926 46.5318 22.1212 44.3842 23.1159Z" fill="white"/>
</svg>
