<svg width="43" height="43" viewBox="0 0 43 43" fill="none" xmlns="http://www.w3.org/2000/svg">
<path d="M42.8884 31.2728C42.093 33.4097 40.8387 35.5466 39.1256 37.6834C36.4946 41.034 33.8739 42.7094 31.2634 42.7094C30.264 42.7094 28.8364 42.4358 26.9804 41.8888C25.2265 41.3418 23.6867 41.0682 22.361 41.0682C21.1169 41.0682 19.6689 41.3503 18.0169 41.9144C16.3649 42.4957 15.0189 42.7863 13.9788 42.7863C10.8787 42.7863 7.80932 40.5725 4.77049 36.1449C1.77246 31.6831 0.273438 27.3837 0.273438 23.2467C0.273438 19.3491 1.42574 16.1523 3.73036 13.6564C6.03497 11.1947 8.93104 9.9639 12.4185 9.9639C13.887 9.9639 15.6919 10.2203 17.8334 10.7332C19.9544 11.246 21.3617 11.5025 22.0551 11.5025C22.9729 11.5025 24.4311 11.2118 26.4298 10.6306C28.5101 10.0494 30.2742 9.75876 31.7222 9.75876C34.1492 9.75876 36.3213 10.3144 38.2384 11.4255C39.2989 12.0409 40.3594 12.8957 41.42 13.9898C39.8088 15.1351 38.6463 16.1437 37.9325 17.0156C36.6068 18.6225 35.944 20.3918 35.944 22.3236C35.944 24.4434 36.6476 26.3495 38.0548 28.0419C39.4621 29.7343 41.0733 30.8112 42.8884 31.2728ZM31.3857 1.19417C31.3857 2.23697 31.09 3.39943 30.4985 4.68155C29.8867 5.96368 28.9383 7.14323 27.6535 8.22021C26.5522 9.14334 25.4508 9.75876 24.3495 10.0665C23.5949 10.2545 22.5344 10.3998 21.1679 10.5024C21.2291 7.95524 22.0245 5.75853 23.5541 3.91228C25.0633 2.08311 27.6127 0.818082 31.2022 0.117188C31.2226 0.168472 31.2481 0.262495 31.2787 0.399255C31.3092 0.536015 31.3347 0.630037 31.3551 0.681322C31.3551 0.749702 31.3602 0.835177 31.3704 0.937747C31.3806 1.04032 31.3857 1.12579 31.3857 1.19417Z" fill="#DDDDDD"/>
</svg>
