<svg width="32" height="44" viewBox="0 0 32 44" fill="none" xmlns="http://www.w3.org/2000/svg">
<path d="M32 41.7987L32 2.19755C31.9988 1.79661 31.8914 1.4036 31.6893 1.06083C31.4872 0.71806 31.1982 0.438507 30.8533 0.252266C30.5084 0.066021 30.1207 -0.0198631 29.7319 0.00386047C29.3431 0.0275841 28.9679 0.160015 28.6468 0.386898L0.863941 20.1875C-0.28798 21.0081 -0.28798 22.9837 0.863941 23.8066L28.6468 43.6071C28.9673 43.8363 29.3426 43.9707 29.732 43.9957C30.1215 44.0207 30.5101 43.9354 30.8558 43.749C31.2014 43.5626 31.4908 43.2822 31.6926 42.9384C31.8943 42.5945 32.0006 42.2004 32 41.7987Z" fill="#00A651"/>
</svg>
