<svg width="32" height="44" viewBox="0 0 32 44" fill="none" xmlns="http://www.w3.org/2000/svg">
<path d="M5.72205e-06 41.7987L5.72205e-06 2.19755C0.00122643 1.79661 0.108646 1.4036 0.310699 1.06083C0.512753 0.71806 0.801786 0.438507 1.14669 0.252266C1.4916 0.066021 1.87932 -0.0198631 2.26812 0.00386047C2.65692 0.0275841 3.03206 0.160015 3.35319 0.386898L31.1361 20.1875C32.288 21.0081 32.288 22.9837 31.1361 23.8066L3.35319 43.6071C3.03273 43.8363 2.6574 43.9707 2.26795 43.9957C1.87851 44.0207 1.48985 43.9354 1.14422 43.749C0.798578 43.5626 0.509172 43.2822 0.307446 42.9384C0.105721 42.5945 -0.000610352 42.2004 5.72205e-06 41.7987Z" fill="#00A651"/>
</svg>
